# xmcd
#
# Track frame offsets: 
#        150
#        32521
#        59977
#        89134
#        124087
#        143931
#        171619
#        197832
#        221104
#        243533
#        276637
#        302048
#        330817
#
# Disc length: 4798 seconds
#
# Revision: 1
# Processed by: cddbd v1.5.2PL0 Copyright (c) Steve Scherf et al.
# Submitted via: ExactAudioCopy v1.0b3
#
DISCID=d712bc0d
DTITLE=Stephenie Meyer gelesen von Annina Braunmiller - Biss zur Mitta
DTITLE=gsstunde CD6
DYEAR=2010
DGENRE=Hörbuch
TTITLE0=076 Die Gang 04
TTITLE1=077 Die Gang 05
TTITLE2=078 Die Gang 06
TTITLE3=079 Die Gang 07
TTITLE4=080 Ein nächtlicher Besucher 01
TTITLE5=081 Ein nächtlicher Besucher 02
TTITLE6=082 Ein nächtlicher Besucher 03
TTITLE7=083 Ein nächtlicher Besucher 04
TTITLE8=084 Ein nächtlicher Besucher 05
TTITLE9=085 Ein nächtlicher Besucher 06
TTITLE10=086 Mörder oder Beschützer? 01
TTITLE11=087 Mörder oder Beschützer? 02
TTITLE12=088 Mörder oder Beschützer? 03
EXTD=gelesen von Annina Braunmiller
EXTT0=
EXTT1=
EXTT2=
EXTT3=
EXTT4=
EXTT5=
EXTT6=
EXTT7=
EXTT8=
EXTT9=
EXTT10=
EXTT11=
EXTT12=
PLAYORDER=
